<svg viewBox="0 0 192 192" fill="none" xmlns="http://www.w3.org/2000/svg">
  <defs>
    <linearGradient id="blueGradMask192" x1="0%" y1="0%" x2="100%" y2="100%">
      <stop offset="0%" style="stop-color:#3b82f6;stop-opacity:1" />
      <stop offset="100%" style="stop-color:#1d4ed8;stop-opacity:1" />
    </linearGradient>
    <linearGradient id="greenGradMask192" x1="0%" y1="0%" x2="100%" y2="100%">
      <stop offset="0%" style="stop-color:#10b981;stop-opacity:1" />
      <stop offset="100%" style="stop-color:#059669;stop-opacity:1" />
    </linearGradient>
  </defs>
  
  <!-- Dark background (full bleed for maskable) -->
  <rect width="192" height="192" fill="#09090b"/>
  
  <!-- Blue chat bubble (left/incoming) - shifted inward for safe zone -->
  <g>
    <path d="M 50 65 Q 50 52 63 52 L 100 52 Q 113 52 113 65 L 113 92 Q 113 105 100 105 L 68 105 L 55 118 L 63 105 Q 50 105 50 92 Z" 
          fill="url(#blueGradMask192)"/>
    <!-- Message lines -->
    <line x1="60" y1="70" x2="103" y2="70" stroke="#ffffff" stroke-width="2.5" opacity="0.8" stroke-linecap="round"/>
    <line x1="60" y1="79" x2="95" y2="79" stroke="#ffffff" stroke-width="2.5" opacity="0.8" stroke-linecap="round"/>
    <line x1="60" y1="88" x2="88" y2="88" stroke="#ffffff" stroke-width="2.5" opacity="0.8" stroke-linecap="round"/>
  </g>
  
  <!-- Green chat bubble (right/outgoing) - shifted inward for safe zone -->
  <g>
    <path d="M 79 87 Q 79 74 92 74 L 129 74 Q 142 74 142 87 L 142 114 Q 142 127 129 127 L 97 127 L 84 140 L 92 127 Q 79 127 79 114 Z" 
          fill="url(#greenGradMask192)"/>
    <!-- Message lines -->
    <line x1="89" y1="92" x2="132" y2="92" stroke="#ffffff" stroke-width="2.5" opacity="0.8" stroke-linecap="round"/>
    <line x1="89" y1="101" x2="124" y2="101" stroke="#ffffff" stroke-width="2.5" opacity="0.8" stroke-linecap="round"/>
    <line x1="89" y1="110" x2="117" y2="110" stroke="#ffffff" stroke-width="2.5" opacity="0.8" stroke-linecap="round"/>
  </g>
  
  <!-- Lock/security indicator -->
  <g transform="translate(140, 52)">
    <circle cx="0" cy="0" r="10" fill="#10b981"/>
    <path d="M -3 -2 L 0 2 L 4 -4" stroke="#09090b" stroke-width="2" stroke-linecap="round" stroke-linejoin="round" fill="none"/>
  </g>
</svg>