<svg viewBox="0 0 512 512" fill="none" xmlns="http://www.w3.org/2000/svg">
  <defs>
    <linearGradient id="blueGrad512" x1="0%" y1="0%" x2="100%" y2="100%">
      <stop offset="0%" style="stop-color:#3b82f6;stop-opacity:1" />
      <stop offset="100%" style="stop-color:#1d4ed8;stop-opacity:1" />
    </linearGradient>
    <linearGradient id="greenGrad512" x1="0%" y1="0%" x2="100%" y2="100%">
      <stop offset="0%" style="stop-color:#10b981;stop-opacity:1" />
      <stop offset="100%" style="stop-color:#059669;stop-opacity:1" />
    </linearGradient>
  </defs>
  
  <!-- Dark background -->
  <rect width="512" height="512" rx="120" fill="#09090b"/>
  
  <!-- Blue chat bubble (left/incoming) -->
  <g>
    <path d="M 110 145 Q 110 110 145 110 L 250 110 Q 285 110 285 145 L 285 230 Q 285 265 250 265 L 160 265 L 120 305 L 145 265 Q 110 265 110 230 Z" 
          fill="url(#blueGrad512)"/>
    <!-- Message lines -->
    <line x1="140" y1="160" x2="255" y2="160" stroke="#ffffff" stroke-width="7" opacity="0.8" stroke-linecap="round"/>
    <line x1="140" y1="185" x2="235" y2="185" stroke="#ffffff" stroke-width="7" opacity="0.8" stroke-linecap="round"/>
    <line x1="140" y1="210" x2="220" y2="210" stroke="#ffffff" stroke-width="7" opacity="0.8" stroke-linecap="round"/>
  </g>
  
  <!-- Green chat bubble (right/outgoing) -->
  <g>
    <path d="M 227 250 Q 227 215 262 215 L 367 215 Q 402 215 402 250 L 402 335 Q 402 370 367 370 L 277 370 L 237 410 L 262 370 Q 227 370 227 335 Z" 
          fill="url(#greenGrad512)"/>
    <!-- Message lines -->
    <line x1="257" y1="265" x2="372" y2="265" stroke="#ffffff" stroke-width="7" opacity="0.8" stroke-linecap="round"/>
    <line x1="257" y1="290" x2="352" y2="290" stroke="#ffffff" stroke-width="7" opacity="0.8" stroke-linecap="round"/>
    <line x1="257" y1="315" x2="337" y2="315" stroke="#ffffff" stroke-width="7" opacity="0.8" stroke-linecap="round"/>
  </g>
  
  <!-- Lock/security indicator -->
  <g transform="translate(400, 120)">
    <circle cx="0" cy="0" r="28" fill="#10b981"/>
    <path d="M -7 -6 L 0 3 L 9 -9" stroke="#09090b" stroke-width="5" stroke-linecap="round" stroke-linejoin="round" fill="none"/>
  </g>
</svg>